<?xml version="1.0" standalone="no"?>
<!DOCTYPE svg PUBLIC "-//W3C//DTD SVG 20010904//EN"
 "http://www.w3.org/TR/2001/REC-SVG-20010904/DTD/svg10.dtd">
<svg version="1.0" xmlns="http://www.w3.org/2000/svg"
 width="200.000000pt" height="219.000000pt" viewBox="0 0 200.000000 219.000000"
 preserveAspectRatio="xMidYMid meet">

<g transform="translate(0.000000,219.000000) scale(0.100000,-0.100000)"
fill="#000000" stroke="none">
<path d="M884 1843 c-104 -92 -341 -302 -527 -466 l-338 -299 3 -51 3 -52 189
-3 c120 -1 193 1 200 8 7 7 -51 10 -183 10 l-192 0 3 43 3 44 514 454 c314
278 523 455 537 457 l24 3 0 -248 c0 -145 4 -254 10 -263 7 -10 9 76 7 255
l-2 270 -31 3 c-27 3 -52 -17 -220 -165z"/>
<path d="M1211 1963 c-12 -24 -18 -43 -13 -43 5 0 14 10 20 23 l11 22 0 -22
c1 -13 6 -23 11 -23 12 0 12 36 1 65 -7 18 -11 15 -30 -22z"/>
<path d="M1274 1965 c-21 -33 -11 -44 36 -42 31 1 40 5 40 19 0 10 5 18 11 18
6 0 8 -9 4 -20 -4 -11 -2 -20 4 -20 6 0 11 9 11 19 0 11 5 23 11 27 8 5 10 -1
7 -20 -6 -28 6 -36 16 -10 15 39 7 51 -34 51 -22 0 -40 -5 -40 -11 0 -19 -14
-33 -40 -41 l-25 -7 23 24 c26 28 28 38 7 38 -8 0 -22 -11 -31 -25z"/>
<path d="M1223 1878 c-6 -7 -13 -32 -17 -56 -8 -51 13 -67 46 -34 17 17 19 26
12 58 -10 40 -25 52 -41 32z m19 -80 c-6 -6 -15 -8 -19 -4 -4 4 -1 11 7 16 8
5 17 7 19 4 3 -2 -1 -10 -7 -16z"/>
<path d="M1397 1838 c-9 -7 -18 -24 -19 -38 -3 -24 -1 -25 55 -26 31 -1 60 2
63 7 3 5 -4 9 -15 9 -28 0 -27 28 2 40 20 8 21 9 2 9 -11 1 -33 -13 -48 -30
-15 -18 -30 -29 -34 -25 -3 3 1 14 10 24 30 33 18 55 -16 30z"/>
<path d="M1640 1830 c-29 -29 -27 -60 4 -60 14 0 28 5 32 11 4 8 0 9 -15 4
-27 -8 -27 3 0 31 27 28 7 42 -21 14z"/>
<path d="M1290 1814 c-14 -37 -13 -49 5 -34 12 10 15 10 15 -1 0 -8 6 -5 15 7
13 17 14 17 15 2 0 -34 20 -18 20 17 0 38 -13 46 -29 18 -10 -17 -10 -17 -11
0 0 26 -19 21 -30 -9z"/>
<path d="M1525 1825 c-10 -35 -12 -55 -5 -55 4 0 11 10 15 23 l8 22 4 -23 c5
-26 23 -20 23 9 0 10 5 19 10 19 6 0 8 -11 4 -25 -4 -15 -2 -25 5 -25 6 0 11
6 11 13 0 6 3 22 6 35 6 21 4 22 -36 20 -23 -2 -44 -7 -45 -13z"/>
<path d="M610 1428 c-190 -171 -346 -315 -348 -320 -2 -4 42 -8 97 -8 61 0
101 4 101 10 0 6 -32 10 -76 10 -42 0 -74 4 -72 8 2 5 145 136 318 292 l315
284 3 -67 c2 -40 7 -65 12 -62 12 7 14 165 3 165 -5 -1 -163 -141 -353 -312z"/>
<path d="M1164 1727 c-3 -8 -4 -54 -2 -103 l3 -89 398 -3 397 -2 0 105 0 105
-395 0 c-320 0 -397 -3 -401 -13z m786 -92 l0 -85 -385 0 -385 0 0 85 0 85
385 0 385 0 0 -85z"/>
<path d="M960 1554 c-8 -3 -37 -15 -64 -27 l-49 -22 39 -8 c21 -5 68 -12 104
-17 36 -5 75 -12 88 -15 17 -6 22 -3 22 12 0 51 -81 96 -140 77z"/>
<path d="M815 1480 c-16 -6 -33 -47 -78 -186 -87 -276 -127 -441 -118 -489 7
-36 8 -37 14 -15 4 14 29 119 57 235 62 259 95 369 115 385 15 13 142 31 232
33 43 1 43 2 17 15 -17 9 -41 12 -63 8 -21 -3 -53 1 -76 9 -45 16 -71 17 -100
5z"/>
<path d="M709 1393 c-118 -106 -193 -208 -238 -323 -32 -84 -56 -209 -49 -265
4 -32 -1 -41 -33 -74 -60 -59 -84 -173 -57 -263 36 -121 206 -204 365 -178
300 49 671 359 784 657 l10 26 -33 -27 c-84 -68 -285 -193 -403 -251 -325
-160 -544 -177 -641 -49 -26 33 -27 38 -13 62 7 14 18 25 24 25 5 -1 20 -27
33 -60 13 -32 30 -64 37 -72 8 -8 43 -16 88 -19 l74 -4 -18 71 c-23 92 -49
264 -49 329 0 138 53 290 134 380 38 44 58 82 42 82 -2 0 -28 -21 -57 -47z"/>
<path d="M995 1430 c-11 -5 -45 -9 -75 -9 -30 -1 -60 -5 -66 -9 -7 -4 -13 -48
-16 -107 -3 -88 -8 -109 -38 -175 -19 -41 -49 -93 -66 -116 -62 -80 -57 -87
18 -27 40 33 106 86 147 119 113 90 168 174 195 297 5 19 2 27 -8 27 -7 0 -26
2 -42 5 -16 2 -38 0 -49 -5z"/>
<path d="M1274 1326 c-18 -8 -35 -19 -38 -25 -10 -15 4 -13 34 4 14 8 37 14
53 15 15 0 27 5 27 10 0 14 -39 12 -76 -4z"/>
<path d="M1420 1262 c-42 -44 -47 -51 -20 -32 l34 25 -24 -40 c-13 -22 -32
-51 -42 -64 -10 -13 -18 -35 -17 -50 0 -23 2 -22 21 16 19 38 24 41 53 36 19
-3 44 1 63 11 38 20 43 31 7 14 -29 -13 -49 -1 -22 13 9 6 24 23 32 40 14 25
14 30 1 35 -8 3 -26 -2 -40 -11 -33 -22 -33 -11 0 32 39 51 15 38 -46 -25z
m60 -35 c0 -23 -33 -45 -54 -38 -17 7 -17 9 9 29 32 25 45 28 45 9z"/>
<path d="M1598 1269 c-46 -24 -69 -57 -61 -87 7 -29 21 -28 55 4 l27 27 -2
-28 c-3 -36 14 -41 44 -15 24 21 24 21 2 15 -18 -5 -23 -2 -23 14 0 11 4 22 9
25 5 3 11 19 13 36 5 36 -9 38 -64 9z m34 -24 c2 -12 -70 -70 -78 -62 -12 11
8 47 34 62 29 15 43 15 44 0z"/>
<path d="M1884 1279 c-3 -6 -20 -19 -38 -30 -18 -11 -24 -19 -15 -19 11 0 15
-7 12 -22 -6 -36 8 -48 50 -41 20 3 37 10 37 15 0 5 -5 6 -11 2 -9 -5 -10 1
-5 20 5 20 3 26 -9 26 -9 0 -17 -6 -19 -12 -15 -48 -17 -52 -25 -39 -13 20 -2
49 30 75 15 13 25 27 22 30 -9 9 -21 7 -29 -5z"/>
<path d="M1055 1246 c-34 -45 -32 -90 5 -94 18 -2 34 6 50 24 l25 27 -28 -18
c-25 -16 -30 -16 -43 -3 -13 13 -10 17 23 39 46 30 56 59 19 59 -17 0 -34 -11
-51 -34z m55 16 c0 -14 -39 -46 -47 -39 -3 4 2 16 12 27 19 21 35 26 35 12z"/>
<path d="M1722 1264 c-32 -22 -27 -37 8 -19 16 8 36 15 45 15 27 0 16 -20 -20
-37 -38 -18 -41 -24 -23 -52 10 -16 6 -23 -25 -51 -34 -29 -50 -70 -28 -70 5
0 25 19 45 43 19 23 48 55 63 71 l28 28 -26 -16 c-25 -16 -27 -16 -33 0 -5 12
3 25 24 43 22 18 29 31 25 44 -9 21 -53 23 -83 1z m-6 -169 c-15 -23 -36 -34
-36 -18 0 10 43 54 48 48 3 -2 -3 -16 -12 -30z"/>
<path d="M1212 1234 c-48 -41 -63 -41 -31 -1 11 15 16 27 10 27 -16 0 -51 -51
-51 -76 0 -32 7 -30 47 11 38 39 62 38 37 -1 -25 -38 -9 -40 32 -5 41 36 49
36 35 -2 -7 -17 -7 -28 -1 -32 12 -7 70 25 70 38 0 5 -7 4 -15 -3 -27 -22 -38
3 -15 32 36 46 16 53 -36 13 -40 -31 -50 -32 -30 -3 36 50 7 51 -52 2z"/>
<path d="M977 1106 c-74 -25 -180 -93 -257 -165 -61 -57 -67 -84 -15 -70 84
24 175 -43 175 -129 0 -16 -7 -49 -15 -72 -8 -23 -15 -44 -15 -46 0 -2 17 3
38 10 70 23 163 200 148 281 -6 31 -10 35 -39 35 -38 0 -117 34 -117 50 0 7 9
5 22 -4 22 -16 99 -22 111 -9 4 3 0 14 -9 24 -18 20 -13 46 11 55 22 9 47 -16
42 -42 -10 -55 40 11 66 86 3 8 6 -3 6 -25 1 -45 29 -107 51 -113 12 -4 11 -1
-2 15 -21 23 -23 44 -6 61 19 19 37 14 50 -13 8 -19 8 -28 -2 -40 -21 -26 -2
-30 30 -6 38 27 39 11 2 -21 -23 -19 -31 -39 -44 -103 -8 -44 -15 -81 -14 -82
1 -2 31 16 67 40 63 41 64 43 61 82 -7 94 -41 162 -101 202 -47 32 -150 31
-244 -1z"/>
<path d="M1770 1110 c0 -9 7 -26 16 -38 27 -39 55 -135 60 -212 11 -148 -36
-285 -134 -392 -93 -101 -213 -164 -387 -204 -107 -25 -550 -28 -565 -4 -11
18 -25 7 -17 -14 14 -35 437 -33 597 3 164 38 277 96 376 195 76 77 119 162
141 281 19 103 10 199 -26 295 -23 60 -60 115 -61 90z"/>
<path d="M1390 1096 c0 -3 24 -11 53 -20 69 -20 129 -73 164 -144 24 -49 28
-69 28 -142 0 -103 -13 -148 -63 -226 -83 -128 -251 -196 -520 -211 -67 -3
-125 -10 -128 -14 -8 -13 222 -2 306 14 243 48 368 150 416 339 41 158 -31
330 -160 389 -37 17 -96 26 -96 15z"/>
<path d="M1110 1019 c0 -9 -9 -24 -21 -35 -18 -16 -19 -26 -14 -79 4 -39 2
-82 -8 -125 -9 -36 -14 -66 -12 -68 2 -2 16 3 33 12 33 17 79 111 89 183 5 36
3 43 -11 43 -10 0 -25 17 -36 43 -11 23 -20 35 -20 26z"/>
<path d="M1162 795 c-7 -15 -11 -30 -8 -32 7 -7 28 36 24 49 -2 6 -9 -2 -16
-17z"/>
<path d="M1010 732 c-44 -65 -44 -63 -16 -51 15 7 30 26 37 46 15 47 8 48 -21
5z"/>
</g>
</svg>
